<svg xmlns="http://www.w3.org/2000/svg">

<symbol id="music">
<path fill-rule="evenodd" clip-rule="evenodd" d="M16 32C24.8366 32 32 24.8366 32 16C32 7.16344 24.8366 0 16 0C7.16344 0 0 7.16344 0 16C0 24.8366 7.16344 32 16 32Z" fill="#FF4E50"/>
<g clip-path="url(#clip0_207_7)">
<path fill-rule="evenodd" clip-rule="evenodd" d="M13.076 10.1711V19.5711C12.564 19.4639 11.9688 19.5047 11.3784 19.7231C10.0496 20.2167 9.58078 21.4175 9.93278 22.4047C10.2848 23.3927 11.3248 23.7919 12.6528 23.2983C13.7808 22.8799 14.52 21.9503 14.5016 21.0751C14.5016 21.0751 14.5016 16.0903 14.5016 13.3103L20.1256 12.0215V17.9863C19.6128 17.8799 19.0176 17.9199 18.4272 18.1391C17.0992 18.6327 16.6304 19.8335 16.9824 20.8207C17.3336 21.8087 18.3736 22.2079 19.7016 21.7151C20.8304 21.2959 21.5688 20.3663 21.5512 19.4919V8.35034L13.076 10.1711Z" fill="white"/>
</g>
<defs>
<clipPath id="clip0_207_7">
<rect width="16" height="16" fill="white" transform="translate(8 8)"/>
</clipPath>
</defs>
</symbol>
 
<symbol id="brush">
<path fill-rule="evenodd" clip-rule="evenodd" d="M16 32C24.8366 32 32 24.8366 32 16C32 7.16344 24.8366 0 16 0C7.16344 0 0 7.16344 0 16C0 24.8366 7.16344 32 16 32Z" fill="#19D4CA"/>
<g clip-path="url(#clip0_207_6)">
<path fill-rule="evenodd" clip-rule="evenodd" d="M10.2704 17.9176C9.07118 19.0968 10.084 20.3064 8.49038 22.1008C7.77118 22.9112 11.4512 22.664 13.2736 20.8712C14.0472 20.1112 13.8288 19.0032 12.9992 18.188C12.1712 17.372 11.044 17.1576 10.2704 17.9176ZM23.5592 7.69761C22.9432 7.09281 16.1304 12.5528 14.1016 14.5464C13.0952 15.536 12.7592 16.0664 12.4512 16.4632C12.3168 16.6352 12.4944 16.6888 12.5736 16.7296C12.972 16.932 13.2512 17.1216 13.612 17.476C13.972 17.8304 14.1648 18.1048 14.3712 18.496C14.4128 18.5752 14.4672 18.7488 14.6416 18.6176C15.0456 18.3144 15.5856 17.984 16.592 16.9944C18.62 15 24.1744 8.30161 23.5592 7.69761Z" fill="white"/>
</g>
<defs>
<clipPath id="clip0_207_6">
<rect width="16" height="16" fill="white" transform="translate(8 7)"/>
</clipPath>
</defs>
</symbol>
 
<symbol id="photo">
<path fill-rule="evenodd" clip-rule="evenodd" d="M16 32C24.8366 32 32 24.8366 32 16C32 7.16344 24.8366 0 16 0C7.16344 0 0 7.16344 0 16C0 24.8366 7.16344 32 16 32Z" fill="#FFA710"/>
<g clip-path="url(#clip0_207_5)">
<path fill-rule="evenodd" clip-rule="evenodd" d="M15.9864 13.3456C14.6736 13.3456 13.6104 14.4104 13.6104 15.7216C13.6104 17.0344 14.6744 18.0984 15.9864 18.0984C17.2984 18.0984 18.3632 17.0344 18.3632 15.7216C18.3632 14.4104 17.2992 13.3456 15.9864 13.3456ZM22.3232 10.9696H20.4224C20.1608 10.9696 19.8792 10.7672 19.7968 10.5192L19.3056 9.04476C19.2224 8.79676 18.9416 8.59436 18.68 8.59436H13.2936C13.032 8.59436 12.7504 8.79676 12.668 9.04476L12.1768 10.5192C12.0936 10.7672 11.812 10.9696 11.5512 10.9696H9.65041C8.77921 10.9696 8.06641 11.6824 8.06641 12.5536V19.6824C8.06641 20.5536 8.77921 21.2664 9.65041 21.2664H22.324C23.1952 21.2664 23.908 20.5536 23.908 19.6824V12.5536C23.908 11.6824 23.1944 10.9696 22.3232 10.9696ZM15.9864 19.6824C13.7992 19.6824 12.0264 17.9096 12.0264 15.7216C12.0264 13.5352 13.7992 11.7616 15.9864 11.7616C18.1736 11.7616 19.9472 13.5352 19.9472 15.7216C19.9472 17.9096 18.1736 19.6824 15.9864 19.6824ZM21.7688 13.6616C21.4632 13.6616 21.2152 13.4128 21.2152 13.1072C21.2152 12.8016 21.4632 12.5528 21.7688 12.5528C22.0752 12.5528 22.3232 12.8016 22.3232 13.1072C22.3232 13.4128 22.0752 13.6616 21.7688 13.6616Z" fill="white"/>
</g>
<defs>
<clipPath id="clip0_207_5">
<rect width="16" height="16" fill="white" transform="translate(8 7)"/>
</clipPath>
</defs>
</symbol>
 
<symbol id="airplane">
<g clip-path="url(#clip0_0_137)">
<path fill-rule="evenodd" clip-rule="evenodd" d="M11.5249 20.1359L12.8967 19.3439L12.8065 12.0789L16.3482 10.0341C16.3482 10.0341 18.4059 8.84608 17.8515 7.88583C17.2967 6.92489 15.239 8.11289 15.239 8.11289L11.6973 10.1577L5.45112 6.44775L4.07933 7.23975L8.95375 11.7417L6.49354 13.1621L4.15794 12.6815L2.78616 13.4735L5.23038 15.1726L5.47936 18.1383L6.85114 17.3463L7.60274 15.0833L10.0629 13.6629L11.5249 20.1359Z" fill="white"/>
</g>
<defs>
<clipPath id="clip0_0_137">
<rect width="17" height="16" fill="white" transform="translate(0.138794 9.32178) rotate(-30)"/>
</clipPath>
</defs>
</symbol>
 
<symbol id="">
</symbol>
 
<symbol id="">
</symbol>
 
<symbol id="">
</symbol>
 
<symbol id="">
</symbol>
 
<symbol id="">
</symbol>
 
<symbol id="">
</symbol>
 
<symbol id="">
</symbol>
 
<symbol id="">
</symbol>
</svg>

